<svg width="30" height="30" viewBox="0 0 20 20" fill="none" xmlns="http://www.w3.org/2000/svg">
  <circle cx="20" cy="10" r="20" fill="#181717"/> <!-- Background circle -->
  <path d="M10 2C6.76 2 4 4.69 4 8.38C4 11.22 5.47 13.57 7.58 14.43C7.86 14.49 7.97 14.3 7.97 14.15C7.97 14.01 7.97 13.4 7.97 12.94C6.1 13.4 5.36 12.34 5.36 12.34C5 11.56 4.51 11.34 4.51 11.34C3.88 10.91 4.74 10.91 4.74 10.91C5.68 10.97 6.2 11.91 6.2 11.91C7.06 13.26 8.53 12.84 9.12 12.58C9.22 12.11 9.48 11.76 9.78 11.53C7.31 11.27 5.26 10.02 5.26 7.39C5.26 6.57 5.57 5.92 6.08 5.42C5.97 5.23 5.68 4.3 6.19 3.21C6.19 3.21 6.94 3 8.3 4.02C8.92 3.8 9.6 3.67 10.29 3.67C10.98 3.67 11.66 3.8 12.28 4.02C13.64 3 14.39 3.21 14.39 3.21C14.9 4.3 14.61 5.23 14.5 5.42C15.01 5.92 15.32 6.57 15.32 7.39C15.32 10.03 13.27 11.27 10.8 11.52C11.15 11.76 11.43 12.31 11.43 13.06C11.43 14.06 11.43 14.43 11.43 14.58C11.43 14.74 11.54 14.92 11.83 14.86C13.93 14.01 15.4 11.66 15.4 8.83C15.4 4.69 12.62 2 10 2Z" fill="white"/>
</svg>
